# xmcd
#
# Track frame offsets:
#	150
#	14383
#	29580
#	44123
#	59718
#	75971
#	91358
#	104277
#	120181
#	140870
#	158709
#	177454
#	193085
#	210496
#	228994
#	248235
#	264474
#	284966
#	300842
#	315935
#	335730
#
# Disc length: 4739
#
# Revision: 2
# Processed by: cddbd v1.5.1PL0 Copyright (c) Steve Scherf et al.
# Submitted via: dBpowerAMP V4.0
# Normalized: r0:DSETVAR1,TDELIM( - ),TSWAP
#
DISCID=2e128115
DTITLE=Various Artist - Hot Hits 2001 Volume 6
DYEAR=2001
DGENRE=Blues
TTITLE0=Pink - Get The Party Started
TTITLE1=Britney Spears - I'm A Slave 4 You
TTITLE2=Shakira - Whenever, Wherever
TTITLE3=Crystal Waters - Come On Down
TTITLE4=Kylie Minogue - Can't Get You Out Of My Head
TTITLE5=No Doubt - Hey Baby
TTITLE6=Smash Mouth - Pacific Coast Party
TTITLE7=Christina Milan - Am To Pm
TTITLE8=Michael Jackson - Butterfiles
TTITLE9=Ja Rule (featuring. Ashanti) - Always On Time
TTITLE10=Janet Jackson (featuring. Missy Elliot) - Son Of A Gun
TTITLE11=City High - Caramel (Video Mix)
TTITLE12=Bubba Sparxx - Ugly
TTITLE13=Nelly - #1
TTITLE14=All Star Tribute - What's Going On
TTITLE15=Nickelback - How You Remind Me
TTITLE16=Creed - My Sacrifice
TTITLE17=Michelle Branch - Everywhere
TTITLE18=The Calling - Wherever You Will Go
TTITLE19=Jewel - Standing Still
TTITLE20=Backstreet Boys - Drowning
EXTD=Hot Hits 2001 Vol 6 
EXTT0=
EXTT1=
EXTT2=
EXTT3=
EXTT4=
EXTT5=
EXTT6=
EXTT7=
EXTT8=
EXTT9=
EXTT10=
EXTT11=
EXTT12=
EXTT13=
EXTT14=
EXTT15=
EXTT16=
EXTT17=
EXTT18=
EXTT19=
EXTT20=
PLAYORDER=
